# xmcd
# 
# Track frame offsets:
#     150
#     31257
#     56017
#     85734
#     123029
#     149383
#     197649
#     227168
# 
# Disc length: 3419
# 
# Revision: 1
# Processed by: cddbd v1.5.2PL0 Copyright (c) Steve Scherf et al.
# Submitted via: fre:ac v1.0.31
# 
DISCID=630d5908
DTITLE=Snarky Puppy - Family Dinner Volume Two
DYEAR=2016
DGENRE=Jazz
TTITLE0=I Asked (feat. Becca Stevens and Vasen)
TTITLE1=Molino Moreno (feat. Susana Baca and Charlie Hunter)
TTITLE2=Liquid Love (feat. Chris Turner)
TTITLE3=Soro (Afriki) (feat. Salif Keita, Carlos Malta and Bernardo Aguiar)
TTITLE4=Sing To The Moon (feat. Laura Mvula and Michelle Willis)
TTITLE5=Don't You Know (feat. Jacob Collier and Big Ed Lee)
TTITLE6=I Remember (feat. KNOWER and Jeff Coffin)
TTITLE7=Somebody Home (feat. David Crosby)
EXTD=YEAR: 2016
EXTT0=
EXTT1=
EXTT2=
EXTT3=
EXTT4=
EXTT5=
EXTT6=
EXTT7=
PLAYORDER=
